<svg xmlns="http://www.w3.org/2000/svg" version="1.1" xmlns:xlink="http://www.w3.org/1999/xlink" xmlns:svgjs="http://svgjs.dev/svgjs" width="128" height="128" viewBox="0 0 128 128"><g transform="matrix(0.8046875,0,0,0.8046875,12.41184074821259,12.814873242367177)"><svg viewBox="0 0 98 98" data-background-color="#ffffff" preserveAspectRatio="xMidYMid meet" height="127" width="128" xmlns="http://www.w3.org/2000/svg" xmlns:xlink="http://www.w3.org/1999/xlink"><g id="tight-bounds" transform="matrix(1,0,0,1,0.08387967645792571,0.08387967645792571)"><svg viewBox="0 0 97.83224064708413 97.83224064708413" height="97.83224064708413" width="97.83224064708413"><g><svg></svg></g><g><svg viewBox="0 0 97.83224064708413 97.83224064708413" height="97.83224064708413" width="97.83224064708413"><g><path d="M0 48.916c0-27.016 21.9-48.916 48.916-48.916 27.016 0 48.916 21.9 48.916 48.916 0 27.016-21.9 48.916-48.916 48.916-27.016 0-48.916-21.9-48.916-48.916zM48.916 93.728c24.749 0 44.812-20.063 44.812-44.812 0-24.749-20.063-44.812-44.812-44.811-24.749 0-44.812 20.063-44.811 44.811 0 24.749 20.063 44.812 44.811 44.812z" data-fill-palette-color="tertiary" fill="#110180" stroke="transparent"></path><ellipse rx="46.959475510600384" ry="46.959475510600384" cx="48.91612032354207" cy="48.91612032354207" fill="#110180" stroke="transparent" stroke-width="0" fill-opacity="1" data-fill-palette-color="tertiary"></ellipse></g><g transform="matrix(1,0,0,1,23.475393915029336,26.158894926491556)"><svg viewBox="0 0 50.88145281702546 45.51445079410102" height="45.51445079410102" width="50.88145281702546"><g><svg viewBox="0 0 50.88145281702546 45.51445079410102" height="45.51445079410102" width="50.88145281702546"><g><svg viewBox="0 0 50.88145281702546 45.51445079410102" height="45.51445079410102" width="50.88145281702546"><g id="textblocktransform"><svg viewBox="0 0 50.88145281702546 45.51445079410102" height="45.51445079410102" width="50.88145281702546" id="textblock"><g><svg viewBox="0 0 50.88145281702546 45.51445079410102" height="45.51445079410102" width="50.88145281702546"><g><svg viewBox="0 0 50.88145281702546 45.51445079410102" height="45.51445079410102" width="50.88145281702546"><g><svg xmlns="http://www.w3.org/2000/svg" xmlns:xlink="http://www.w3.org/1999/xlink" version="1.1" x="0" y="0" viewBox="5.493 9.132158434597251 90.00009877276209 80.50684169313746" enable-background="new 0 0 100 100" xml:space="preserve" height="45.51445079410102" width="50.88145281702546" class="icon-icon-0" data-fill-palette-color="quaternary" id="icon-0"><path d="M69.673 44.032A1 1 0 0 1 68.764 43.45L66.459 38.443A1 1 0 1 1 68.275 37.607L70.58 42.614A1 1 0 0 1 69.673 44.032M76.51 38.607A1 1 0 0 0 76.271 37.213L71.771 34.029A1.001 1.001 0 0 0 70.616 35.662L75.116 38.846A1 1 0 0 0 76.51 38.607M79.402 30.779A1 1 0 0 0 78.498 29.691L73.01 29.184A1 1 0 0 0 72.826 31.175L78.314 31.682A1 1 0 0 0 79.402 30.779M55.431 42.218L58.615 37.718A1 1 0 1 0 56.982 36.563L53.798 41.063A1 1 0 1 0 55.431 42.218M62.953 44.446L63.46 38.957A1 1 0 0 0 62.556 37.87 0.996 0.996 0 0 0 61.468 38.774L60.961 44.263A1 1 0 0 0 61.958 45.354 1 1 0 0 0 62.953 44.446M77.378 23.269C77.389 23.669 77.16 24.037 76.796 24.205L69.383 27.618A6.16 6.16 0 0 1 69.373 31.883 6.17 6.17 0 0 1 66.142 35.372 6.2 6.2 0 0 1 63.554 35.941 6.22 6.22 0 0 1 58.156 32.788L50.735 36.205A0.999 0.999 0 0 1 49.372 34.972L53.498 22.967 49.824 14.987A0.98 0.98 0 0 1 49.767 14.386L34.97 17.126V18.977C34.97 19.013 34.881 19.401 34.82 19.5 34.817 19.509 13.324 53.707 13.324 53.707L22.417 77.915H34.873A1 1 0 0 1 35.873 78.915V84.336A1 1 0 0 1 34.873 85.336H6.493A1 1 0 0 1 5.493 84.336V78.915A1 1 0 0 1 6.493 77.915H16.161L7.158 53.945C7.15 53.923 7.073 53.723 7.088 53.517 7.102 53.324 7.208 53.126 7.244 53.068L29.903 16.362C29.981 16.237 29.999 16.175 30.159 16.052 30.314 15.932 30.568 15.905 30.572 15.904L55.291 11.326C55.319 11.321 55.402 11.304 55.43 11.302L59.942 9.224A1 1 0 0 1 61.269 9.714L64.943 17.694 76.747 22.365C77.118 22.514 77.366 22.869 77.378 23.269M33.874 79.914H7.493V83.335H33.874zM11.522 54.594H9.538L18.298 77.914H20.281zM32.6 19.278L31.068 18.284 9.887 52.594H11.662zM52.059 15.057L55.065 21.584 62.877 17.988 59.87 11.46zM67.543 28.465L59.985 31.945C61.09 33.719 63.357 34.452 65.305 33.555A4.2 4.2 0 0 0 67.496 31.189C67.825 30.302 67.826 29.354 67.543 28.465M73.836 23.366L64.232 19.566 55.381 23.641 52.024 33.41z" fill="#ffffff" data-fill-palette-color="quaternary"></path><path d="M72.87 86.633A4.3 4.3 0 0 1 71.292 86.335C67.381 84.795 63.006 83.37 57.529 83.37 56.183 83.37 54.837 83.431 53.526 83.55 52.39 83.657 50.015 84.078 46.841 84.733 46.356 84.833 45.867 84.56 45.697 84.092L38.538 64.196A1 1 0 1 1 40.421 63.519L47.287 82.6C49.439 82.165 51.975 81.689 53.341 81.559A46 46 0 0 1 57.529 81.371C63.34 81.371 67.929 82.862 72.025 84.475A2.42 2.42 0 0 0 74.202 84.24C77.344 82.223 81.254 80.292 84.661 79.072A44 44 0 0 1 94.376 76.797 1 1 0 0 1 94.61 78.783 42 42 0 0 0 85.337 80.954C82.111 82.109 78.259 84.013 75.282 85.924A4.5 4.5 0 0 1 72.87 86.633M95.343 74.65C95.182 74.908 94.913 75.079 94.611 75.115A42 42 0 0 0 85.338 77.286C79.725 79.296 75.653 81.189 73.234 82.916A1.01 1.01 0 0 1 72.271 83.026C67.058 80.872 63.165 79.705 57.531 79.705 56.185 79.705 54.839 79.766 53.528 79.885 51.999 80.031 50.763 80.254 49.02 80.614A1 1 0 0 1 47.875 79.968L40.983 60.528A1 1 0 0 1 41.726 59.214 45.4 45.4 0 0 1 50.723 58.315C56.819 58.315 60.726 59.644 65.388 61.552 71.4 56.505 80.711 54.191 87.543 53.71 87.987 53.677 88.406 53.949 88.556 54.373L95.436 73.79A1 1 0 0 1 95.343 74.65M57.529 77.704C62.71 77.704 66.478 78.63 70.946 80.347L64.788 63.468C60.27 61.614 56.521 60.312 50.722 60.312 48.216 60.312 45.71 60.529 43.257 60.958L49.468 78.48A38 38 0 0 1 53.339 77.892 47 47 0 0 1 57.529 77.704M93.139 73.293L86.927 55.763C80.524 56.329 72.184 58.511 66.757 63.028L73.158 80.573C75.771 78.935 79.543 77.237 84.661 75.405A44 44 0 0 1 93.139 73.293M72.519 65.574C76.092 63.595 80.485 62.126 85.221 61.326A1 1 0 1 0 84.889 59.354C79.931 60.191 75.319 61.737 71.55 63.825A1 1 0 0 0 72.519 65.574M63.762 66.256A1 1 0 0 0 63.143 64.985C59.286 63.653 56.071 63.11 52.047 63.11 50.559 63.11 49.191 63.177 47.863 63.316A1 1 0 0 0 46.972 64.414 0.994 0.994 0 0 0 48.07 65.305 38 38 0 0 1 52.047 65.111C55.832 65.111 58.858 65.623 62.49 66.877A1 1 0 0 0 63.762 66.256M73.955 69.491C77.483 67.507 81.866 66.011 86.629 65.164A1 1 0 0 0 86.28 63.195C81.299 64.08 76.698 65.654 72.975 67.747A1.002 1.002 0 0 0 73.466 69.619 1 1 0 0 0 73.955 69.491M65.364 70.676A1 1 0 0 0 64.737 69.408C61.106 68.179 57.897 67.655 54.007 67.655 52.511 67.655 50.986 67.734 49.474 67.889 48.924 67.946 48.525 68.437 48.581 68.987 48.639 69.536 49.12 69.924 49.679 69.88 51.123 69.731 52.579 69.655 54.007 69.655 57.667 69.655 60.684 70.148 64.097 71.302A1 1 0 0 0 65.364 70.676M75.476 73.625C78.972 71.604 83.341 70.081 88.112 69.224A1.001 1.001 0 0 0 87.759 67.255C82.763 68.153 78.169 69.757 74.475 71.895A1 1 0 1 0 75.476 73.625M67.034 75.001A1 1 0 0 0 66.395 73.739C62.89 72.59 59.78 72.099 55.994 72.099 54.395 72.099 52.765 72.189 51.145 72.365A1.001 1.001 0 0 0 51.362 74.354 43 43 0 0 1 55.994 74.1C59.556 74.1 62.48 74.561 65.772 75.64A0.997 0.997 0 0 0 67.034 75.001" fill="#ffffff" data-fill-palette-color="quaternary"></path><path d="M46.985 89.639H26.013A1 1 0 1 1 26.013 87.639H46.986A1 1 0 1 1 46.985 89.639M62.536 88.639A1 1 0 0 0 61.536 87.639H53.877A1 1 0 1 0 53.877 89.639H61.536A1 1 0 0 0 62.536 88.639" fill="#ffffff" data-fill-palette-color="quaternary"></path></svg></g></svg></g></svg></g></svg></g></svg></g><g></g></svg></g></svg></g></svg></g><defs></defs></svg><rect width="97.83224064708413" height="97.83224064708413" fill="none" stroke="none" visibility="hidden"></rect></g></svg></g></svg>